<svg id="Group_11" data-name="Group 11" xmlns="http://www.w3.org/2000/svg" xmlns:xlink="http://www.w3.org/1999/xlink" width="52.553" height="52.553" viewBox="0 0 52.553 52.553">
  <defs>
    <clipPath id="clip-path">
      <rect id="Rectangle_5" data-name="Rectangle 5" width="52.553" height="52.553" fill="#545454"/>
    </clipPath>
  </defs>
  <g id="Group_10" data-name="Group 10" clip-path="url(#clip-path)">
    <path id="Path_1" data-name="Path 1" d="M157.148,196.089c1.189-.028,2.379-.019,3.568-.019h1.579c-.119-1.393-.222-2.571-.327-3.75h-6.989c.436,1.071.854,2.125,1.2,3.158.173.52.467.622.972.611" transform="translate(-138.373 -171.714)" fill="#545454"/>
    <path id="Path_2" data-name="Path 2" d="M181.769,336.278a1.139,1.139,0,0,0,1.11,1.164,1.2,1.2,0,0,0,1.221-1.2,1.144,1.144,0,0,0-1.121-1.107,1.129,1.129,0,0,0-1.21,1.142" transform="translate(-162.293 -299.226)" fill="#545454"/>
    <path id="Path_3" data-name="Path 3" d="M297.863,244.361c.183,0,.479-.13.525-.267.206-.6.394-1.206.582-1.822-.22.017-.441.029-.665.029a8.392,8.392,0,0,1-4.253-1.152c-.088,1.048-.174,2.077-.27,3.225,1.457,0,2.769.011,4.082-.012" transform="translate(-262.305 -215.311)" fill="#545454"/>
    <path id="Path_4" data-name="Path 4" d="M173.268,239.32c.413,1.179.777,2.092,1.184,3.065a.663.663,0,0,0,.485.327c1.309.026,2.618,0,4.051,0-.105-1.227-.2-2.316-.289-3.387Z" transform="translate(-154.704 -213.679)" fill="#545454"/>
    <path id="Path_5" data-name="Path 5" d="M232.494,195.534a.869.869,0,0,0,.644.535c1.372.051,2.748.014,4.122.043a8.706,8.706,0,0,1-2.1-3.793h-2.931c.08,1.071.122,2.166.26,3.214" transform="translate(-207.352 -171.714)" fill="#545454"/>
    <path id="Path_6" data-name="Path 6" d="M318.272,337.416a1.157,1.157,0,1,0-1.2-1.166,1.167,1.167,0,0,0,1.2,1.166" transform="translate(-283.096 -299.198)" fill="#545454"/>
    <path id="Path_7" data-name="Path 7" d="M26.277,0A26.277,26.277,0,1,0,52.553,26.277,26.277,26.277,0,0,0,26.277,0M39.54,26.21q-.682,2.185-1.363,4.37c-.279.9-.974,1.048-1.787,1.047-4.8-.011-9.607.014-14.411.014H20.95c.34,1.714.34,1.748,1.952,1.748,4.019,0,8.038-.015,12.056-.007a3.613,3.613,0,0,1,3.405,1.955,3.482,3.482,0,0,1-.126,3.669,3.665,3.665,0,0,1-6.767-1.9c0-.369.042-.749.069-1.177H24.325a13.022,13.022,0,0,1-.2,2.138,3.532,3.532,0,0,1-3.289,2.641,3.665,3.665,0,0,1-3.63-2.326A3.507,3.507,0,0,1,18.263,34.3c.619-.47.6-.85.357-1.479q-3.091-7.978-6.119-15.98c-.237-.628-.535-.881-1.209-.825a22.314,22.314,0,0,1-2.259.009,1.238,1.238,0,1,1,.02-2.471c1.255-.026,2.512.011,3.767-.016a1.4,1.4,0,0,1,1.491,1.033c.32.884.707,1.746.983,2.643.2.659.563.832,1.229.83q5.53-.017,11.061-.016A8.433,8.433,0,1,1,39.54,26.21" fill="#545454"/>
    <path id="Path_8" data-name="Path 8" d="M236.137,242.749H240.8c.091-1.179.18-2.25.272-3.429h-5.215c.095,1.179.184,2.25.276,3.429" transform="translate(-210.59 -213.679)" fill="#545454"/>
    <rect id="Rectangle_3" data-name="Rectangle 3" width="1.82" height="9.643" transform="translate(35.09 13.734)" fill="#545454"/>
    <rect id="Rectangle_4" data-name="Rectangle 4" width="9.643" height="1.82" transform="translate(31.179 17.645)" fill="#545454"/>
  </g>
</svg>
