<svg id="Group_107" data-name="Group 107" xmlns="http://www.w3.org/2000/svg" width="44.366" height="44.366" viewBox="0 0 44.366 44.366">
  <path id="Path_105" data-name="Path 105" d="M887.525,460h-17.9l8.95,7.672Zm0,0" transform="translate(-856.392 -445.739)" fill="#fff"/>
  <path id="Path_106" data-name="Path 106" d="M866.3,477.968a.791.791,0,0,1-.516-.191L856,469.391v14.915h20.6V469.391l-9.784,8.386a.791.791,0,0,1-.516.191Zm0,0" transform="translate(-844.116 -454.2)" fill="#fff"/>
  <path id="Path_107" data-name="Path 107" d="M758.183,316a22.183,22.183,0,1,0,22.183,22.183A22.183,22.183,0,0,0,758.183,316Zm11.884,30.9a.792.792,0,0,1-.792.792H747.092a.792.792,0,0,1-.792-.792v-17.43a.792.792,0,0,1,.792-.792h22.183a.792.792,0,0,1,.792.792Zm0,0" transform="translate(-736 -316)" fill="#fff"/>
</svg>
