<svg id="Group_108" data-name="Group 108" xmlns="http://www.w3.org/2000/svg" width="44.245" height="44.245" viewBox="0 0 44.245 44.245">
  <path id="Path_108" data-name="Path 108" d="M919.469,495.234A4.234,4.234,0,1,1,915.234,491a4.234,4.234,0,0,1,4.234,4.234Zm0,0" transform="translate(-893.112 -473.112)" fill="#fff"/>
  <path id="Path_109" data-name="Path 109" d="M859.8,422.41A4.207,4.207,0,0,0,857.39,420a7.029,7.029,0,0,0-2.359-.437c-1.34-.061-1.741-.074-5.133-.074s-3.794.013-5.133.074a7.034,7.034,0,0,0-2.359.437A4.208,4.208,0,0,0,840,422.41a7.029,7.029,0,0,0-.437,2.359c-.061,1.339-.074,1.741-.074,5.133s.013,3.794.074,5.133a7.026,7.026,0,0,0,.437,2.359,4.206,4.206,0,0,0,2.411,2.411,7.02,7.02,0,0,0,2.359.437c1.339.061,1.741.074,5.133.074s3.794-.013,5.133-.074a7.02,7.02,0,0,0,2.359-.437,4.207,4.207,0,0,0,2.411-2.411,7.037,7.037,0,0,0,.437-2.359c.061-1.34.074-1.741.074-5.133s-.013-3.794-.074-5.133a7.021,7.021,0,0,0-.437-2.359Zm-9.9,14.015a6.523,6.523,0,1,1,6.523-6.523,6.523,6.523,0,0,1-6.523,6.523Zm6.781-11.78a1.524,1.524,0,1,1,1.524-1.525,1.525,1.525,0,0,1-1.524,1.525Zm0,0" transform="translate(-827.776 -407.78)" fill="#fff"/>
  <path id="Path_110" data-name="Path 110" d="M726.123,284a22.123,22.123,0,1,0,22.123,22.123A22.125,22.125,0,0,0,726.123,284Zm12.627,27.36a9.319,9.319,0,0,1-.59,3.084,6.5,6.5,0,0,1-3.715,3.715,9.326,9.326,0,0,1-3.083.59c-1.355.062-1.787.077-5.237.077s-3.883-.015-5.238-.077a9.326,9.326,0,0,1-3.083-.59,6.5,6.5,0,0,1-3.715-3.715,9.315,9.315,0,0,1-.59-3.083c-.062-1.355-.077-1.788-.077-5.238s.015-3.883.077-5.237a9.32,9.32,0,0,1,.59-3.084,6.5,6.5,0,0,1,3.716-3.715,9.329,9.329,0,0,1,3.084-.59c1.354-.062,1.787-.077,5.237-.077s3.883.015,5.237.077a9.331,9.331,0,0,1,3.084.59,6.5,6.5,0,0,1,3.715,3.716,9.317,9.317,0,0,1,.591,3.084c.062,1.355.076,1.787.076,5.237s-.015,3.883-.077,5.237Zm0,0" transform="translate(-704 -284)" fill="#fff"/>
</svg>
