<svg xmlns="http://www.w3.org/2000/svg" width="29" height="29" viewBox="0 0 29 29">
  <g id="Group_109" data-name="Group 109" opacity="0.3">
    <path id="Path_105" data-name="Path 105" d="M881.325,460h-11.7l5.85,5.014Zm0,0" transform="translate(-860.975 -450.679)" fill="#a5a58d"/>
    <path id="Path_106" data-name="Path 106" d="M862.732,475a.517.517,0,0,1-.337-.125l-6.4-5.481v9.749h13.464v-9.749l-6.4,5.481a.517.517,0,0,1-.337.125Zm0,0" transform="translate(-848.232 -459.462)" fill="#a5a58d"/>
    <path id="Path_107" data-name="Path 107" d="M750.5,316A14.5,14.5,0,1,0,765,330.5,14.5,14.5,0,0,0,750.5,316Zm7.768,20.2a.518.518,0,0,1-.518.518h-14.5a.518.518,0,0,1-.518-.518V324.8a.518.518,0,0,1,.518-.518h14.5a.518.518,0,0,1,.518.518Zm0,0" transform="translate(-736 -316)" fill="#a5a58d"/>
  </g>
</svg>
