<svg id="Group_106" data-name="Group 106" xmlns="http://www.w3.org/2000/svg" width="44.366" height="44.366" viewBox="0 0 44.366 44.366">
  <path id="Path_104" data-name="Path 104" d="M726.183,284a22.183,22.183,0,1,0,22.183,22.183A22.186,22.186,0,0,0,726.183,284Zm10.129,17.3q.015.327.015.658a14.389,14.389,0,0,1-14.487,14.487h0a14.412,14.412,0,0,1-7.8-2.287,10.354,10.354,0,0,0,1.214.07,10.217,10.217,0,0,0,6.324-2.179,5.1,5.1,0,0,1-4.757-3.537,5.073,5.073,0,0,0,2.3-.087,5.093,5.093,0,0,1-4.085-4.991c0-.023,0-.044,0-.065a5.057,5.057,0,0,0,2.306.637,5.1,5.1,0,0,1-1.576-6.8,14.456,14.456,0,0,0,10.5,5.32,5.094,5.094,0,0,1,8.676-4.643,10.215,10.215,0,0,0,3.233-1.236,5.112,5.112,0,0,1-2.239,2.816,10.153,10.153,0,0,0,2.924-.8,10.345,10.345,0,0,1-2.54,2.637Zm0,0" transform="translate(-704 -284)" fill="#fff"/>
</svg>
